<svg xmlns="http://www.w3.org/2000/svg"><symbol id="logo" viewBox="0 0 256 256"><style>.st0{fill:#fff;stroke:#000;stroke-width:14;stroke-miterlimit:10}.st1{font-family:&apos;NeuzeitGro-Reg&apos;}.st2{font-size:122.3008px}.st3{fill:#062733}</style><path d="M128.2 228.5C71.3 228.5 24.7 182 24.7 125c0-56.9 46.6-103.5 103.5-103.5S231.7 68.1 231.7 125c0 57-46.6 103.5-103.5 103.5z" class="st0"/><text class="st1 st2" transform="translate(91.27 129.112)">A</text><path d="M143.1 142.8l10.2-13.7h11.4L138 208.4h-19.6l-26.5-79.3h10.6l11.3 13.7h29.3zm-14.6 46.1l10.7-32.8H118l10.5 32.8z" class="st3"/></symbol><symbol id="logo-64" viewBox="0 0 64 64"><style>.st0{fill:#fff;stroke:#000;stroke-width:3.8184;stroke-miterlimit:10}.st1{font-family:&apos;NeuzeitGro-Reg&apos;}.st2{font-size:33.3564px}.st3{fill:#062733}</style><path d="M32 60.2C16.5 60.2 3.8 47.5 3.8 32S16.5 3.8 32 3.8 60.2 16.5 60.2 32 47.5 60.2 32 60.2z" class="st0"/><text class="st1 st2" transform="translate(21.92 33.112)">A</text><path d="M36.1 36.8l2.8-3.7H42l-7.3 21.6h-5.3l-7.2-21.6H25l3.1 3.7h8zm-4 12.6l2.9-9h-5.8l2.9 9z" class="st3"/></symbol><symbol id="logo-16" viewBox="0 0 16 16"><style>.st0{stroke:#fff;stroke-width:.9356;stroke-miterlimit:10}.st1{fill:#fff}.st2{font-family:&apos;NeuzeitGro-Reg&apos;}.st3{font-size:8.1728px}</style><path d="M8 14.9c-3.8 0-6.9-3.1-6.9-6.9 0-3.8 3.1-6.9 6.9-6.9 3.8 0 6.9 3.1 6.9 6.9 0 3.8-3.1 6.9-6.9 6.9z" class="st0"/><text class="st1 st2 st3" transform="translate(5.532 8.272)">A</text><path d="M9 9.2l.7-.9h.8l-1.8 5.3H7.3L5.6 8.3h.7l.7.9h2zm-1 3.1l.7-2.2H7.3l.7 2.2z" class="st1"/></symbol><symbol id="logo-32" viewBox="0 0 32 32"><style>.st0{stroke:#fff;stroke-width:1.7778;stroke-miterlimit:10}.st1{fill:#fff}.st2{font-family:&apos;NeuzeitGro-Reg&apos;}.st3{font-size:15.5302px}</style><path d="M16.1 29.3C8.9 29.3 3 23.3 3 16.1 3 8.9 8.9 3 16.1 3c7.2 0 13.1 5.9 13.1 13.1.1 7.2-5.9 13.2-13.1 13.2z" class="st0"/><text class="st1 st2 st3" transform="translate(11.428 16.634)">A</text><path d="M18 18.4l1.3-1.7h1.5l-3.4 10.1h-2.5l-3.4-10.1h1.3l1.4 1.7H18zm-1.9 5.8l1.4-4.2h-2.7l1.3 4.2z" class="st1"/></symbol></svg>