<svg xmlns="http://www.w3.org/2000/svg"><symbol id="jacket" viewBox="0 0 100 100.5"><path fill="none" d="M33.8 23.8a1.1 1.1 0 0 1 .9-.6h.2l1.4.5a29 29 0 0 1 2.1-4.7l-2-9.2a38.7 38.7 0 0 0-7 13.7l4 1.3zM60.6 17l1.9-9a67.3 67.3 0 0 0-11.1-1.3h-1.9c-2 .1-8.3.5-11.3 1.5l1.9 8.8a70.4 70.4 0 0 1 20.5 0zM23.9 28.3l-4.6 2.2c-.2 0-.3.2-.5.3l-13.5 22L5 54l1.9 19c0 .2.1.2.1.3a21.5 21.5 0 0 1 10.1.2 1.6 1.6 0 0 0 .2-1l.4-23.3v-8.5a1 1 0 0 1 1-1 .9.9 0 0 1 1 1v7.6l4 .5c.2 0 1.7-.6 2.4-6.5s-1.3-11.8-2.2-14zm8.8 30.9L30.2 75l2.1 1.5a31.3 31.3 0 0 1 3.7-7l-.8-9.3zM60.9 21a75.7 75.7 0 0 0-4.9 7.2 34.3 34.3 0 0 1 6.4-3.7 21.7 21.7 0 0 0-1.5-3.5zM7.6 75.2l.6 4.1a44.5 44.5 0 0 1 7.3 0l.7-4.1a17.9 17.9 0 0 0-8.6 0zm30.5-50.9a26.7 26.7 0 0 1 6.6 3.7 58.8 58.8 0 0 0-5.1-7.2zm26.2-.5l1.8-.5a1 1 0 0 1 1.1.7l.4.8 4-1.1a36 36 0 0 0-7.4-14.4L62.1 19a20.5 20.5 0 0 1 2.2 4.8zM50.4 39a.5.5 0 0 0-.5.5l-.6 3.3h2.2l-.6-3.3a.5.5 0 0 0-.5-.5zm-9.7-20c1.6 1.8 6.9 8.3 9.3 15l.5 1c.2-.3.3-.7.5-1a54.4 54.4 0 0 1 9-15c-8-1.3-16.3-.3-19.3 0zm43.1 56.2l.7 4.1a44.5 44.5 0 0 1 7.3 0l.6-4.1a17.9 17.9 0 0 0-8.6 0zm-18.9-15l-.8 9.3a21.7 21.7 0 0 1 3.8 7L70 75l-2.6-15.8zm16.5-29.4a.8.8 0 0 0-.5-.5l-4.6-2.1c-.9 2.3-2.8 8.3-2.2 14s2.1 6.5 2.3 6.6l4-.6v-7.7a1.1 1.1 0 0 1 1-1 1 1 0 0 1 1 1v8.7l.4 23.3c.1.3.1.6.2.8a20.3 20.3 0 0 1 10.1-.1c.1 0 .2-.1.1-.2L95 54a1.4 1.4 0 0 0-.3-1.2z"/><path fill="none" d="M74.9 50.2c-1.4-1-2.3-3.7-2.8-7.7-.7-6.5 1.5-12.7 2.4-15l-3.1-1.7-4 1.2a1.2 1.2 0 0 1-1.2-.7l-.4-1c-2.8.9-12 4.2-13.9 12A3 3 0 0 1 53 39l.9 4.7a.7.7 0 0 1-.2.8.7.7 0 0 1-.8.3h-1.4v39H74c1.9-9.8 1.5-29.1 1.4-33.3zm-3.3 26l-3.7 2.6-.6.2H67a1.1 1.1 0 0 1-.6-.7s-1.6-5.3-4-7.8a1.1 1.1 0 0 1-.3-.7l.9-10.5a1 1 0 0 1 .6-.8l4.3-1.7a1 1 0 0 1 .9.2.7.7 0 0 1 .5.7L72 75.2a.8.8 0 0 1-.4 1zM27.1 90.8h22.4v-5H26.4l.7 5zm22.3-46H48a1.3 1.3 0 0 1-.8-.3 1.3 1.3 0 0 1-.2-.8l.9-4.7a3.9 3.9 0 0 1 1.1-1.7c-1.9-7.8-11.1-11.1-13.9-12l-.4 1a1 1 0 0 1-1.2.7l-4.6-1.3-3.4 1.8c.9 2.3 3.1 8.5 2.4 15-.4 4-1.4 6.7-2.8 7.7l-.5.3c-.1 4.2-.5 23.5 1.4 33.3h23.4zM37.7 70.7c-2.3 2.3-4 7.6-4 7.8s-.2.5-.6.7h-.3l-.6-.2-3.7-2.7a1.2 1.2 0 0 1-.4-1l2.8-17.6c.1-.4.2-.7.5-.7a1 1 0 0 1 .9-.2l4.3 1.7a.7.7 0 0 1 .5.8l.9 10.5a.9.9 0 0 1-.3.9zm13.8 20.1h21.3l.7-5h-22v5z"/><path d="M37.1 59.3a.7.7 0 0 0-.5-.8l-4.3-1.7a1 1 0 0 0-.9.2c-.3 0-.4.3-.5.7l-2.8 17.6a1.2 1.2 0 0 0 .4 1l3.7 2.7.6.2h.3c.4-.2.6-.4.6-.7s1.7-5.5 4-7.8a.9.9 0 0 0 .3-.9zm-4.8 17.2L30.2 75l2.5-15.8 2.5 1 .8 9.3a31.3 31.3 0 0 0-3.7 7zm37-18.8a.7.7 0 0 0-.5-.7 1 1 0 0 0-.9-.2l-4.3 1.7a1 1 0 0 0-.6.8l-.9 10.5a1.1 1.1 0 0 0 .3.7c2.4 2.5 4 7.8 4 7.8a1.1 1.1 0 0 0 .6.7h.3l.6-.2 3.7-2.6a.8.8 0 0 0 .4-1zm-1.4 18.8a21.7 21.7 0 0 0-3.8-7l.8-9.3 2.5-1L70 75z"/><path d="M96.4 51.8l-13.5-22a2.8 2.8 0 0 0-1.3-1.1l-5.4-2.5-2.4-1.2a.8.8 0 0 0 .1-.8A37.3 37.3 0 0 0 64.8 7l-.3-.2c-2.9-1.3-10-1.8-12.9-2h-2.1c-2.9.2-10 .7-12.9 2h-.3A39.2 39.2 0 0 0 27.2 24v.2l-3.2 2-5.5 2.6a2.9 2.9 0 0 0-1.3 1.2L3.6 51.8a3.5 3.5 0 0 0-.6 2.4l1.8 19a4.8 4.8 0 0 0 .7 1.8l.8 5.6a1.1 1.1 0 0 0 1.1.9 31.7 31.7 0 0 1 8.7 0h.2a1 1 0 0 0 1-.9l.9-5.5a3.5 3.5 0 0 0 1-2.6l.4-22.2 3 .5c-.1 4.4-.5 24.4 1.6 34.2l1 7a1.1 1.1 0 0 0 1 .8h47.4a1 1 0 0 0 1-.8l.9-6.7c.2 0 .2-.2.2-.3 2.1-9.8 1.7-29.8 1.6-34.3l2.9-.5.4 22.3a4.9 4.9 0 0 0 1 2.6l.9 5.5a1.2 1.2 0 0 0 1 .9h.2a31.7 31.7 0 0 1 8.7 0 1 1 0 0 0 1.1-.9l.8-5.6a2.4 2.4 0 0 0 .7-1.8l1.8-19a2.4 2.4 0 0 0-.4-2.4zM71.6 23.7l-4 1.1-.4-.8a1 1 0 0 0-1.1-.7l-1.8.5a20.5 20.5 0 0 0-2.2-4.8l2.1-9.7a36 36 0 0 1 7.4 14.4zM51 34c-.2.3-.3.7-.5 1l-.5-1c-2.4-6.7-7.7-13.2-9.3-15 3-.3 11.3-1.3 19.3 0a54.4 54.4 0 0 0-9 15zm.5 8.8h-2.2l.6-3.3a.5.5 0 0 1 1 0zM44.7 28a26.7 26.7 0 0 0-6.6-3.7l1.5-3.5a58.8 58.8 0 0 1 5.1 7.2zm16.2-7a21.7 21.7 0 0 1 1.5 3.5 34.3 34.3 0 0 0-6.4 3.7 75.7 75.7 0 0 1 4.9-7.2zM49.5 6.7h1.9A67.3 67.3 0 0 1 62.5 8l-1.9 9a70.4 70.4 0 0 0-20.5 0l-1.9-8.8c3-1 9.3-1.4 11.3-1.5zM36.4 9.8l2 9.2a29 29 0 0 0-2.1 4.7l-1.4-.5h-.2a1.1 1.1 0 0 0-.9.6l-.4 1-4-1.3a38.7 38.7 0 0 1 7-13.7zM15.5 79.3a44.5 44.5 0 0 0-7.3 0l-.6-4.1a17.9 17.9 0 0 1 8.6 0zm8.2-30.5l-4-.5v-7.6a.9.9 0 0 0-1-1 1 1 0 0 0-1 1v8.5l-.4 23.3a1.6 1.6 0 0 1-.2 1A21.5 21.5 0 0 0 7 73.3c0-.1-.1-.1-.1-.3L5 54l.3-1.2 13.5-22c.2-.1.3-.3.5-.3l4.6-2.2c.9 2.2 2.9 8.2 2.2 14s-2.2 6.5-2.4 6.5zm2.3 35c-1.9-9.8-1.5-29.1-1.4-33.3l.5-.3c1.4-1 2.4-3.7 2.8-7.7.7-6.5-1.5-12.7-2.4-15l3.4-1.8 4.6 1.3a1 1 0 0 0 1.2-.7l.4-1c2.8.9 12 4.2 13.9 12a3.9 3.9 0 0 0-1.1 1.7l-.9 4.7a1.3 1.3 0 0 0 .2.8 1.3 1.3 0 0 0 .8.3h1.4v39zm23.5 7H27.1l-.7-5h23.1zm23.3 0H51.5v-5h22zm1.2-7H51.5v-39h1.4a.7.7 0 0 0 .8-.3.7.7 0 0 0 .2-.8L53 39a3 3 0 0 0-1.1-1.7c1.9-7.8 11.1-11.1 13.9-12l.4 1a1.2 1.2 0 0 0 1.2.7l4-1.2 3.1 1.7c-.9 2.3-3.1 8.5-2.4 15 .5 4 1.4 6.7 2.8 7.7l.5.3c.1 4.2.5 23.5-1.4 33.3zm17.8-4.5a44.5 44.5 0 0 0-7.3 0l-.7-4.1a17.9 17.9 0 0 1 8.6 0zm1.4-6.3c.1.1 0 .2-.1.2a20.3 20.3 0 0 0-10.1.1c-.1-.2-.1-.5-.2-.8l-.4-23.3v-8.7a1 1 0 0 0-1-1 1.1 1.1 0 0 0-1 1v7.7l-4 .6c-.2-.1-1.7-.8-2.3-6.6s1.3-11.7 2.2-14l4.6 2.1a.8.8 0 0 1 .5.5l13.3 22A1.4 1.4 0 0 1 95 54z"/></symbol><symbol id="shirt" viewBox="0 0 100 100.5"><path d="M43 9a5.9 5.9 0 0 0-2 .4c-5.6 2.3-10.5 4.9-16 7.8S15.9 23 14.3 27.7s-2.4 12.2-2.4 25.2a2.2 2.2 0 0 0 2 2h10a2.2 2.2 0 0 0 1.9-1.3l1.1-3.1V86a5.2 5.2 0 0 0 5.3 5h35.3a5.2 5.2 0 0 0 5.3-5V50.4l1.1 3.2a2.1 2.1 0 0 0 1.9 1.4h10a2.2 2.2 0 0 0 2-2c0-13.1-.4-20.2-2.4-25.2S79.8 21 74.8 17.3s-11.1-5.9-16-7.8a5.3 5.3 0 0 0-2-.5zm.2 4h13.7a11.5 11.5 0 0 1 1.7.6 26 26 0 0 1-4.2 7.6c-1.6 1.8-3.1 2.5-4.4 2.5s-2.7-.7-4.4-2.5a26 26 0 0 1-4.2-7.6zm-5.5 2.2a30 30 0 0 0 4.9 8.6 10 10 0 0 0 7.4 3.8 10 10 0 0 0 7.4-3.8 27.8 27.8 0 0 0 4.9-8.6L73 20.7c3.8 2.6 7.6 5.2 8.9 8.5s2 10.4 2.1 21.8h-6.5c-1.5-4.7-3-8.8-4.5-13.6a2.1 2.1 0 0 0-1.7-1.4c-1.5.2-2.3 1-2.2 2v41h-7v4h7v3c0 .5-.5 1-1.3 1H32.3c-.9 0-1.3-.5-1.3-1V39a2.1 2.1 0 0 0-1.7-2 2 2 0 0 0-2.2 1.3L22.6 51h-6.5c.1-11.4.6-18.1 2.1-21.8s3.9-5.5 8.8-8.5l10.7-5.5z"/></symbol><symbol id="sweater" viewBox="0 0 100 100.5"><path d="M85.1 89.8c0-12.6-2.5-25.3-4.9-36.1A249.5 249.5 0 0 1 76.4 29a1.1 1.1 0 0 0-1.1-1.1h-.1l-7.4-2.6c.2-2.8.1-10.5-4.7-15.9-3.2-3.5-7.7-5.3-13.5-5.3h-1.8c-1.4 0-8.7.3-13.4 5.7-3.3 3.7-4.6 8.9-3.9 15.5l-7.9 2.6c-.3.1-.5.4-.7.6a.4.4 0 0 0-.1.3c0 .1-1.5 15-3.8 24.7s-4.9 23.7-4.9 36.3a1.1 1.1 0 0 0 1.1 1.3h.1v3.6a1.2 1.2 0 0 0 1.2 1.2h6.9a1.3 1.3 0 0 0 1.3-1.2v-3.6a1.3 1.3 0 0 0 1.1-.9l2.4-8.2c0 3-.1 5.7-.1 7.6a1.2 1.2 0 0 0 .4.8.9.9 0 0 0 .9.4h.6v3.9a1.2 1.2 0 0 0 1.2 1.2h37.6a1.3 1.3 0 0 0 1.3-1.2v-3.9h.5a1.3 1.3 0 0 0 1.2-1.2v-8.5l2.6 9.1a1.3 1.3 0 0 0 1.1.9v3.6a1.3 1.3 0 0 0 1.3 1.2h6.9a1.2 1.2 0 0 0 1.2-1.2v-3.6a1.2 1.2 0 0 0 1.2-1.2zM49.2 29.9c-7.6-5.2-8.9-9.8-9.1-11.6a30.1 30.1 0 0 1 8.5-1.2 29.5 29.5 0 0 1 9.8 1.5c-.4 2-2 6.4-9.2 11.3zm-16.1-4.5a8.1 8.1 0 0 1 1.9-4.1 13.5 13.5 0 0 1 2.7-2c.4 2.2 1.9 6 6.8 10.2-5.9-.9-11.1-2.5-11.4-4.1zm20.8 4.1c4.6-4 6.2-7.5 6.8-9.8a9 9 0 0 1 4.5 6.1c-.9 1.4-5.8 2.8-11.3 3.7zM36.3 11.4c4-4.5 10.2-4.8 11.5-4.8h1.8c5 0 8.9 1.5 11.6 4.5s3.4 6.1 3.9 9c-3.3-3.6-8.8-5.5-16.5-5.5a33.7 33.7 0 0 0-10 1.5l-.6.3a13.9 13.9 0 0 0-4.8 3.2l-.3.3a14.8 14.8 0 0 1 3.4-8.5zm-4.8 16.2c1.8 1.9 5.9 3.1 9.7 3.8v18.9a1.3 1.3 0 0 0 1.3 1.2 1.2 1.2 0 0 0 1.2-1.2V31.9l5.2.6h.7l4.1-.5v18.3a1.2 1.2 0 0 0 1.2 1.2 1.3 1.3 0 0 0 1.3-1.2V31.6c4.1-.7 8.7-1.9 10.7-4l6.6 2.3c-.9 5.4-5 28.9-5.2 31s-.1 6.2-.1 11.9a11.7 11.7 0 0 1-6.2-9.3 1.4 1.4 0 0 0-1.2-1.1H36.7a1.4 1.4 0 0 0-1.2 1.1 11.3 11.3 0 0 1-5.8 9c0-5.6 0-10.6-.1-11.6s-4.2-25.6-5.2-31zM49 88.3H29.6c.1-2.4.1-7.6.1-13a13.8 13.8 0 0 0 8.1-10.4h10.7c.1 0 .2 0 .2-.1h11a13.8 13.8 0 0 0 8.5 10.6c.1 5.3.1 10.5.1 12.8zm-32.2 5.1v-2.3h4.4v2.3zm10.3-20.2l-4.5 15.4h-7c.1-12 2.5-24.1 4.9-34.3 1.1-5 2.1-11.4 2.8-16.5 1.7 10.1 3.7 22 3.8 23.3s.1 6.1.1 11.9zm39.5 20.2H31.5v-2.6h35.1zm4.5-20.2l-.4-.5c0-5.7 0-10.7.1-11.6s2.3-13.9 4-24.2c.7 5.2 1.7 12.1 2.9 17.4 2.4 10.2 4.8 22.3 4.9 34.3h-7zM77 93.4v-2.3h4.4v2.3z"/><path d="M44.4 73.4a1.4 1.4 0 0 0-1.8-.1l-8.9 8a1.3 1.3 0 0 0-.1 1.8 1.1 1.1 0 0 0 .9.4 1.6 1.6 0 0 0 .9-.3l8.9-8a1.4 1.4 0 0 0 .1-1.8zm-9.9 5.2a1.6 1.6 0 0 0 .9-.3l3.8-3.5a1.1 1.1 0 0 0 .2-1.6c0-.1-.1-.1-.1-.2a1.1 1.1 0 0 0-1.5-.1h-.2l-3.9 3.4a1.3 1.3 0 0 0-.1 1.8 1.1 1.1 0 0 0 .9.5zm8.6-.7l-5 4.4a1.4 1.4 0 0 0-.1 1.8 1.1 1.1 0 0 0 .9.4 1.6 1.6 0 0 0 .9-.3l4.9-4.5a1.2 1.2 0 0 0-1.6-1.8zm-1.5-22.7h1.7a1.3 1.3 0 0 0 1.3-1.3 1.2 1.2 0 0 0-1.2-1.2h-1.8a1.3 1.3 0 0 0-1.3 1.1 1.3 1.3 0 0 0 1.3 1.4zm12.4 0h1.8A1.2 1.2 0 0 0 57 54a1.2 1.2 0 0 0-1.2-1.2H54a1.2 1.2 0 0 0-1.2 1.2 1.1 1.1 0 0 0 1.1 1.3z"/></symbol></svg>