<svg id="Layer_1" data-name="Layer 1" xmlns="http://www.w3.org/2000/svg" width="256" height="256" viewBox="0 0 256 256"><title>Artboard 1</title><rect x="0.3" width="256" height="256" fill="#161541"/><path d="M125.6,19h7.6L167,94.8H155.9l-10-22.4H113.8l-9.4,22.4H93.3Zm15.9,43.9L129.3,35.6,118.1,62.9Z" fill="#fff"/><path d="M45.9,191V125.9h16c6.5,0,11.6,1.6,15.4,4.9S83,138.5,83,144a18,18,0,0,1-2.8,9.9,17.4,17.4,0,0,1-8,6.2,27.9,27.9,0,0,1,6,5.6A105.3,105.3,0,0,1,86.4,178c2.2,3.7,4,6.5,5.3,8.4l3.4,4.6H84.2l-2.7-4.3-.6-.8-1.8-2.5-2.8-4.8-3-5.1a58.6,58.6,0,0,0-5.2-6.4,22.5,22.5,0,0,0-4.3-3.4c-1.2-.7-3.4-1-6.3-1H55.1V191Zm11.9-57.2H55.1v20.6h3.4c4.7,0,7.8-.4,9.6-1.2a9.5,9.5,0,0,0,4-3.7,11.3,11.3,0,0,0,1.4-5.6,9.6,9.6,0,0,0-1.6-5.5,8.1,8.1,0,0,0-4.5-3.6A34.6,34.6,0,0,0,57.8,133.8Z" fill="#fff"/><path d="M104.5,127h36.3v8.1H113.7v19.6h26.2v8.2H113.7v19.9h28v8.1H104.5Z" fill="#fff"/><path d="M156.5,191V126.9h20.3c6.1,0,11,1.6,14.6,4.9s5.5,7.8,5.5,13.3a18,18,0,0,1-2.8,9.9,15.9,15.9,0,0,1-7.7,6.3c-3.2,1.3-7.9,1.9-13.9,1.9h-6.8V191Zm18.7-56h-9.5v20.1h10c3.8,0,6.6-.9,8.7-2.7s3-4.2,3-7.5C187.4,138.3,183.3,135,175.2,135Z" fill="#fff"/><path d="M24.8,62.7H78v8.2H55.8v55.7H46.6V70.9H24.8Z" fill="#fff"/><rect x="50.7" y="67" width="160" height="159.98" fill="none" stroke="#fff" stroke-miterlimit="10" stroke-width="9.09"/></svg>